# xmcd
#
# Track frame offsets:
#	150
#	23792
#	49232
#	67890
#	89052
#	110252
#	132477
#	150167
#	174195
#	188625
#	204987
#
# Disc length: 2993 seconds
#
# Revision: 0
# Processed by: cddbd v1.5.1PL0 Copyright (c) Steve Scherf et al.
# Submitted via: EasyCDDAExtractor 8.2.1.1
#
DISCID=860baf0b
DTITLE=ORHAN GENCEBAY - BENIM DERTLERIM
DYEAR=1976
DGENRE=Alternative
TTITLE0=ZAMANSIZ RUZGAR
TTITLE1=ZALIMSIN
TTITLE2=SEVECEKSIN
TTITLE3=TUTULDU ELLERIM
TTITLE4=HER GUNUM GAMLI GECER
TTITLE5=KADERIMI CIZIYORUM
TTITLE6=SEVMEK NE GUZEL
TTITLE7=FELEKTEN BETER VURDU
TTITLE8=BIR ZAMAN AGLAYIP
TTITLE9=SEN
TTITLE10=BITECEK DERTLERIMIZ
EXTD=
EXTT0=
EXTT1=
EXTT2=
EXTT3=
EXTT4=
EXTT5=
EXTT6=
EXTT7=
EXTT8=
EXTT9=
EXTT10=
PLAYORDER=
